PathFileType	4	(X/Y/Z)	OpenSim_Sub10_EMGStiffKnee_Accel.trc
DataRate	CameraRate	NumFrames	NumMarkers	Units	OrigDataRate	OrigDataStartFrame	OrigNumFrames
100	100	41	8	m	100	3140	8371
Frame#	Time	torso_imu_offset_imu	pelvis_imu_offset_imu	tibia_r_imu_offset_imu	femur_r_imu_offset_imu	tibia_l_imu_offset_imu	femur_l_imu_offset_imu	toes_r_imu_offset_imu	toes_l_imu_offset_imu
				X1	Y1	Z1	X2	Y2	Z2	X3	Y3	Z3	X4	Y4	Z4	X5	Y5	Z5	X6	Y6	Z6	X7	Y7	Z7	X8		Y8	Z8	

3140	31.39000000	9.21211800	1.48628500	4.83276800	7.39462300	3.35370500	5.06013300	11.28175200	2.55413200	-0.35438000	10.33649700	1.74413800	2.13201100	8.87789200	-8.06224400	-3.37054600	6.87718800	-3.26760000	-4.72887800	15.62677400	0.74133300	12.60739800	6.11839300	1.31990700	10.78116900
3141	31.40000000	8.92057000	1.90531300	5.07514800	7.88104100	3.39917800	5.48822600	10.38919500	3.97242500	1.10541500	10.98445500	2.02105100	2.68523000	8.41782900	-8.71266000	-2.07192400	7.07249700	-3.37285800	-5.50092200	15.29629400	-2.32139400	10.74643800	5.30317700	0.34426700	11.09614300
3142	31.41000000	8.83738500	1.81569800	5.19831600	8.46595600	3.19885000	5.70835100	10.01866900	6.37701000	2.19186000	11.58299700	2.16292800	3.07055800	9.02923000	-5.70799900	1.20579100	8.24646700	-2.84194700	-4.37156600	19.40082500	-2.50409300	13.51514800	5.44296000	-0.16216100	11.07284400
3143	31.42000000	8.77013900	1.41544400	5.22811800	8.77072000	2.85417000	5.61857400	9.93608700	8.90948000	2.54617200	11.98039500	2.26391000	3.27081500	9.92040700	-0.78216500	3.20660000	10.47074800	-1.91368200	-2.56960600	13.90087100	-4.23869600	8.93735300	5.41966500	-0.74202400	11.12819300
3144	31.43000000	8.57764800	1.01816700	5.28472800	8.92739500	2.23153600	5.45517600	10.03128600	10.99200200	1.43857300	12.00881700	2.32961900	3.04214600	10.90189600	2.07558000	2.53811000	12.92989900	-0.46018800	-1.45984300	5.11844900	-4.38790700	16.69680300	5.26508500	-0.98751400	11.31385300
3145	31.44000000	8.31997300	0.79547700	5.28683900	8.87881000	1.53206000	5.41927100	9.69035000	12.76997400	-0.70484400	11.90312000	2.37513100	2.57087000	11.45630400	1.47482000	1.35469300	14.42848000	1.19985000	-0.64506800	23.27666000	1.54905200	26.27949800	4.93657900	-0.59034600	11.63699800
3146	31.45000000	8.04014800	0.65231400	5.34470800	8.90441400	0.88389300	5.40011100	7.75006600	12.80064500	-3.94131700	11.95300700	2.02045700	1.92908900	11.34604800	-0.64787600	0.62557600	13.31595300	2.97167900	-1.44713400	5.39270900	-5.83350800	19.38281500	5.39966100	-0.18539000	11.28149400
3147	31.46000000	8.00926100	0.63496600	5.45246800	9.16977400	0.32591000	5.34278600	5.59476300	11.86163700	-4.24565300	12.17438700	1.26488500	0.94740500	10.00395000	-1.68456100	-0.20727300	9.61331300	4.58750900	-2.80431200	-3.04641400	-5.12359600	12.90771200	5.29936500	0.34613000	11.28231100
3148	31.47000000	8.08826000	0.79591600	5.45034000	9.43586300	0.00243000	5.06950900	3.88274200	9.60293600	-0.49981800	12.17883900	0.54377300	0.12591200	9.17640600	-2.06870900	-1.24648900	7.02006900	5.66165700	-2.80285400	-3.53409300	-2.62655500	11.53622300	5.54886900	0.56225400	10.89506600
3149	31.48000000	8.34181300	0.99905900	5.44875700	9.60346500	-0.07036300	4.82209200	3.05508300	7.53457700	3.58336900	11.61621000	0.03818000	0.01983900	9.52803700	-2.60995500	-1.54885200	6.14132300	6.37904000	-2.02555700	-0.59353900	-1.50360600	10.63041500	5.02972400	0.71371200	11.24659700
3150	31.49000000	8.71492800	1.10518800	5.51697900	9.31716900	-0.19151400	4.65113000	3.16291600	5.75604400	5.44538100	10.72736900	-0.20643000	0.53466200	9.55717000	-2.65292500	-1.22860800	6.22323800	6.45449900	-1.19963000	1.02041600	-0.80725500	10.92681900	5.34342600	0.82108700	11.03330000
3151	31.50000000	8.77572800	0.92027800	5.38274000	8.76867100	-0.30364900	4.54345200	3.71409800	4.62760300	4.88550800	10.24979200	-0.15563900	1.19844400	9.35601300	-2.10028400	-0.76169800	7.01419700	6.00687200	-0.56771500	2.12024700	-2.35753100	10.13980400	5.22494300	0.46951400	10.97496500
3152	31.51000000	8.64258200	0.61436200	5.22168300	8.11878000	-0.32323400	4.42760900	4.15744900	4.50088700	3.65081700	9.94154200	-0.02250600	1.66137600	9.46483900	-1.33508100	-0.48298800	8.47690900	5.10936500	-0.67909100	2.34829000	-2.49419900	9.91146400	5.36563000	0.44255800	10.96990000
3153	31.52000000	8.41511300	0.51406700	5.02172500	7.44182700	-0.44339200	4.27608000	4.10973000	5.38713800	3.22406400	9.69910800	0.05978400	1.79887200	10.09224800	-0.55310100	-0.01608700	9.49049900	3.36100800	-1.62133100	2.12898600	-1.31421200	9.66187100	5.04666400	0.38331000	11.19849800
3154	31.53000000	8.37529600	0.38975100	5.08606900	7.18779000	-0.44858600	3.96458900	3.59892300	6.42725300	3.09255100	9.56740200	0.01484900	1.85367300	10.13384700	-0.11839000	0.33617300	9.76771100	1.10430500	-2.54044900	1.44033200	-0.02637200	9.06504700	5.16603300	0.24784600	11.06245600
3155	31.54000000	8.36031700	0.34340300	5.20209100	7.29479300	-0.39108800	3.89360100	2.77818400	6.49601500	3.01515500	9.43344700	-0.18530300	1.77115100	9.85502500	0.48333100	0.86064700	9.64742000	-0.95904500	-2.68294600	0.89449300	0.75328700	8.58996100	5.41877600	-0.00537900	10.93515100
3156	31.55000000	8.35138800	0.31038300	5.16071400	7.64637100	-0.28839000	3.84399300	1.75131900	5.56689700	3.74157900	9.03545600	-0.38756200	1.62547500	9.84980200	0.59324600	0.72748100	9.53001800	-2.10127200	-2.28190500	1.04774700	0.58297800	7.91270700	5.34897600	0.13111800	10.98931000
3157	31.56000000	8.63673000	0.10397500	5.15267400	8.19547000	-0.16201500	3.83074400	1.41205100	3.96249600	4.21957000	8.57216400	-0.62611700	1.62153300	9.88755500	0.28693200	0.51910500	9.38463200	-2.71361700	-1.67772800	1.79647700	0.54180900	7.95706600	5.07306500	0.15155300	11.15198100
3158	31.57000000	8.89559200	-0.01767100	5.23047600	8.49314100	0.00929600	3.74923000	1.97715400	2.33081200	3.59278800	8.15164100	-1.08647600	1.67588800	9.63083800	-0.45812300	0.25567300	9.26802100	-2.35960800	-1.22475700	2.90359200	0.87293900	8.55374500	5.01854400	0.27433600	11.16318200
3159	31.58000000	8.95848600	-0.05100000	5.25714200	8.56805100	0.05192300	3.60804700	2.75566800	1.17891300	2.85946200	7.95049200	-1.48492800	1.87236700	9.51821400	-0.86028700	0.28609900	9.46578200	-1.20986800	-1.20945000	4.33949700	1.32792900	9.43391600	5.34124400	0.31240100	11.00905700
3160	31.59000000	8.82359800	0.03528300	5.30603100	8.54597500	0.07020500	3.45979700	3.55616000	0.51193800	2.07680400	7.86341000	-1.91164200	2.05050700	9.56214900	-1.57231800	-0.02331200	9.32559200	0.02679000	-1.49986400	5.82701500	1.80337200	10.26182100	5.30321400	0.15024900	10.96720800
3161	31.60000000	8.58835500	0.21808300	5.46530700	8.63322300	-0.00893100	3.44576900	4.61830900	0.84836500	1.61441900	7.83693500	-2.24124600	2.21573600	9.44167900	-2.01541500	-0.03267600	9.06803500	1.22235300	-2.04808100	6.55396300	1.93485100	10.54530800	5.52103100	0.13792600	10.90489400
3162	31.61000000	8.45385300	0.26409300	5.55082200	8.70004500	-0.14624800	3.48070900	5.90123300	1.73336500	1.38869700	7.88564900	-2.49288300	2.23731400	9.51921600	-2.32953100	-0.22577000	8.92396900	2.18350300	-2.30657600	6.99937700	1.44084300	10.37544700	4.99829000	0.19650700	11.21726800
3163	31.62000000	8.49254700	0.22896200	5.54636000	8.88739400	-0.34377100	3.47724300	7.38793200	2.78378600	1.08925400	8.01062600	-2.54342100	2.04112600	9.81641600	-2.20380900	-0.39717100	9.08972900	2.80946200	-2.07444200	8.22377800	0.82727600	10.14554100	5.29674300	0.25017400	10.99575600
3164	31.63000000	8.48053300	0.31195800	5.60110100	8.98931100	-0.53809500	3.26815500	8.91222100	3.83612600	1.32048300	8.03455200	-2.47944900	1.80739400	10.16257300	-2.03491200	-0.58329200	9.27631700	3.13850500	-1.54713800	9.90591900	0.02516000	10.00298400	5.30708300	0.22512900	11.03134000
3165	31.64000000	8.54188100	0.37053000	5.51708900	8.95161700	-0.89491700	3.12033800	10.36727200	5.33527000	1.41870000	7.93675700	-2.50460000	1.51575400	10.07019100	-1.87948000	-0.64057700	9.35602500	3.04663700	-1.09878600	11.60487400	-1.22136800	9.89144700	5.45759500	0.36069900	10.94619500
3166	31.65000000	8.52991000	0.37413400	5.48231900	8.79188600	-1.06665300	2.98939700	11.40330300	7.47661200	0.96050700	7.61538300	-2.70254000	1.27669300	9.81148200	-1.82826200	-0.49764400	9.15860100	2.44631100	-1.18136000	13.85405600	-1.51734900	10.25742700	5.04819900	0.32706200	11.14003700
3167	31.66000000	8.46807300	0.51080100	5.52588300	8.70924000	-1.24369500	2.90531000	11.73584900	9.70729900	0.51006400	7.08304300	-3.20309000	1.09225700	9.67789600	-1.76811900	-0.34118300	8.93266600	1.71010700	-1.47415200	15.50139700	-0.47899900	10.59743600	5.09691900	0.38263800	11.13009600
3168	31.67000000	8.50391500	0.57369600	5.37397000	8.64990100	-1.34955500	2.79356400	11.00266800	11.05680800	0.30541600	6.69524400	-3.62004100	1.30975100	9.83164900	-1.58922800	-0.24575600	8.93326100	1.30971700	-1.61938600	17.28122800	0.25562300	10.05810100	5.33802100	0.15660300	11.09779900
3169	31.68000000	8.54024800	0.54677100	5.26809500	8.51931800	-1.42257500	2.69792200	9.68370300	10.95840000	0.72104600	6.54890600	-4.06838300	1.87793000	9.90056400	-1.68529000	-0.39603900	9.24102000	1.10995000	-1.51933500	19.31154200	0.76928600	8.90795300	5.56594200	0.15422100	10.89457700
3170	31.69000000	8.86721900	0.52535600	5.12665300	8.39060600	-1.38432500	2.61293000	8.59644900	9.70041600	1.43606000	6.54507100	-4.31615200	2.34131400	9.97078800	-1.73530100	-0.18267500	9.48802000	1.28036400	-1.51352500	20.40140700	2.25620100	6.75683100	5.21860400	0.07291700	11.17981000
3171	31.70000000	9.02008300	0.58935200	5.01373000	8.24032800	-1.31215800	2.53930100	8.51438100	7.41235700	0.56956500	6.29908900	-4.10243500	2.42413500	9.90101900	-1.57983700	-0.21111700	9.48078200	1.75652100	-1.67348500	20.99217400	4.86096800	4.98870300	5.11769300	0.14188700	11.21972700
3172	31.71000000	9.02603200	0.62874000	5.02527000	8.06927000	-1.25250500	2.49362600	9.23884200	4.55216900	-0.98848900	5.86719800	-4.00429300	2.09536500	10.02713100	-1.14113200	-0.19850700	9.24416500	2.30540600	-1.98704200	22.32648900	6.39999300	3.03845400	5.24700800	0.12720600	11.12165400
3173	31.72000000	9.02975600	0.65638500	4.98666800	8.02116800	-1.18983100	2.43868500	9.97550700	2.50792100	-0.93852700	5.57042900	-4.55485700	1.70981700	10.05468100	-0.86337000	-0.18927400	8.88992100	2.74370400	-2.09218300	22.22352000	6.19965900	0.28012600	5.53254000	0.11108400	10.91100900
3174	31.73000000	9.10499000	0.59956400	4.96166600	8.02470300	-1.10973300	2.42641500	10.47271400	1.89130500	-0.50210400	5.53471000	-5.20962300	1.56440700	10.31154400	-0.24852400	0.12329900	8.47969000	2.93271600	-2.11759400	20.99810300	6.04748000	-2.96447200	5.70035800	0.02292700	10.87785900
3175	31.74000000	9.15421000	0.59671900	4.96057900	8.03611600	-1.03492100	2.54588700	10.16542100	2.55587500	-0.61468500	5.61670800	-5.63830800	1.35583900	10.50224600	0.04693100	0.05682600	8.22324700	2.88924000	-1.91087300	19.88559500	5.52940200	-4.53942100	5.01515400	-0.10226400	11.31279900
3176	31.75000000	9.32254100	0.61656400	4.91116100	8.11748900	-1.08261300	2.60184400	8.91247600	3.88653800	-0.31798400	5.88134600	-5.73222100	1.09367700	10.66695200	-0.08821700	0.34930200	8.29570700	2.47566300	-1.69943700	20.42549200	4.40633100	-5.59431900	5.22151600	-0.29420100	11.19650500
3177	31.76000000	9.36607100	0.58385400	4.91801700	8.23850000	-1.10091200	2.51640300	7.28397700	4.81630200	0.03430800	6.45884100	-5.86435600	0.55031100	10.53219000	-0.61380500	0.58743200	8.67009500	1.87308900	-1.55892000	20.55203700	2.76683900	-6.12444700	5.34280100	-0.38795900	11.20781400
3178	31.77000000	9.28579700	0.56636000	5.01841900	8.38261000	-1.15040300	2.41505200	6.21668400	4.93291100	0.11663400	7.12448600	-5.53241900	-0.12100700	10.11183600	-0.83730600	0.69907200	9.23961000	1.26895700	-1.56734600	19.16537500	0.98310100	-7.25103200	5.34044900	-0.02054000	11.25070500
3179	31.78000000	9.20247700	0.57432000	5.00201400	8.58040000	-1.19739800	2.38762000	5.95501300	4.33278800	0.03172700	7.64804800	-5.10466600	-0.70179500	10.03448000	-0.59124400	0.64293200	9.88775600	0.73833400	-1.75053300	15.15413600	-3.91916100	-9.92090600	4.85468200	0.34570000	11.43207800
3180	31.79000000	9.11925000	0.66720300	5.04289000	8.90155500	-1.13057300	2.72714900	6.52279800	3.63293600	-0.77532600	7.86917500	-4.69716900	-0.81450300	10.35519000	-0.23601500	0.47154000	10.41270900	0.54026000	-2.06957400	20.20875600	-7.08598300	-26.32392500	4.83292100	0.72092000	11.69639800
